<?xml version="1.0" encoding="UTF-8" standalone="no"?>
<svg width="16px" height="17px" viewBox="0 0 16 17" version="1.1" xmlns="http://www.w3.org/2000/svg" xmlns:xlink="http://www.w3.org/1999/xlink" xmlns:sketch="http://www.bohemiancoding.com/sketch/ns">
    <!-- Generator: Sketch 3.0.4 (8053) - http://www.bohemiancoding.com/sketch -->
    <title>Imported Layers 3</title>
    <desc>Created with Sketch.</desc>
    <defs></defs>
    <g id="Page-1" stroke="none" stroke-width="1" fill="none" fill-rule="evenodd" sketch:type="MSPage">
        <g id="Single-blog-post" sketch:type="MSArtboardGroup" transform="translate(-1182.000000, -22.000000)" fill="#FFFFFF">
            <g id="navigation-8" sketch:type="MSLayerGroup">
                <g id="top-bar" sketch:type="MSShapeGroup">
                    <path d="M1197.707,36.293 L1194.595,33.201 C1194.593,33.199 1194.591,33.199 1194.589,33.197 C1195.471,32.025 1196,30.575 1196,29 C1196,25.141 1192.859,22 1189,22 C1185.141,22 1182,25.141 1182,29 C1182,32.859 1185.141,36 1189,36 C1190.575,36 1192.025,35.471 1193.196,34.59 C1193.198,34.592 1193.198,34.594 1193.2,34.596 L1196.293,37.707 C1196.488,37.902 1196.744,38 1197,38 C1197.256,38 1197.512,37.902 1197.707,37.707 C1198.098,37.316 1198.098,36.684 1197.707,36.293 L1197.707,36.293 Z M1184,29 C1184,26.243 1186.243,24 1189,24 C1191.757,24 1194,26.243 1194,29 C1194,31.757 1191.757,34 1189,34 C1186.243,34 1184,31.757 1184,29 Z" id="Imported-Layers-3"></path>
                </g>
            </g>
        </g>
    </g>
</svg>