<?xml version="1.0" encoding="UTF-8" standalone="no"?>
<svg width="75px" height="18px" viewBox="0 0 75 18" version="1.1" xmlns="http://www.w3.org/2000/svg" xmlns:xlink="http://www.w3.org/1999/xlink" xmlns:sketch="http://www.bohemiancoding.com/sketch/ns">
    <!-- Generator: Sketch 3.0.4 (8053) - http://www.bohemiancoding.com/sketch -->
    <title>raygun logo</title>
    <desc>Created with Sketch.</desc>
    <defs></defs>
    <g id="Page-1" stroke="none" stroke-width="1" fill="none" fill-rule="evenodd" sketch:type="MSPage">
        <g id="Single-blog-post" sketch:type="MSArtboardGroup" transform="translate(-230.000000, -22.000000)" fill="#FFFFFF">
            <g id="navigation-8" sketch:type="MSLayerGroup">
                <g id="top-bar" sketch:type="MSShapeGroup">
                    <g id="raygun-logo" transform="translate(230.000000, 22.000000)">
                        <path d="M31.367,0.2545 L29.792,4.004 C29.33,5.1145 28.9595,6.017 28.613,6.9895 L28.566,6.9895 C28.1725,5.971 27.8485,5.138 27.363,4.004 L25.766,0.2545 L21.7395,0.2545 L26.6685,9.4655 L26.6685,15.8525 L30.1865,15.8525 L30.1865,9.3495 L35.324,0.2545 L31.367,0.2545" id="Fill-1"></path>
                        <path d="M41.2175,9.674 L43.624,9.674 L43.624,12.9365 C43.3475,13.0755 42.699,13.168 41.8885,13.168 C38.996,13.168 36.9825,11.27 36.9825,8.0535 C36.9825,4.6755 39.205,3.009 42.1435,3.009 C43.856,3.009 44.9205,3.31 45.777,3.6795 L46.518,0.8565 C45.7535,0.486 44.203,0.093 42.19,0.093 C37.0755,0.093 33.303,3.055 33.28,8.2385 C33.2565,10.53 34.0435,12.5665 35.4785,13.9085 C36.9135,15.297 38.9725,16.0145 41.82,16.0145 C43.879,16.0145 45.939,15.506 47.026,15.1355 L47.026,6.9195 L41.2175,6.9195 L41.2175,9.674" id="Fill-2"></path>
                        <path d="M57.25,9.234 C57.25,11.988 56.2325,13.284 54.381,13.284 C52.576,13.284 51.5575,11.9185 51.5575,9.234 L51.5575,0.2545 L48.0175,0.2545 L48.0175,8.956 C48.0175,13.932 50.331,16.107 54.2655,16.107 C58.339,16.107 60.7685,13.816 60.7685,9.003 L60.7685,0.2545 L57.25,0.2545 L57.25,9.234" id="Fill-3"></path>
                        <path d="M71.4325,4.814 C71.4325,7.151 71.502,9.2575 71.7335,11.317 L71.664,11.317 C70.9695,9.558 70.044,7.6145 69.118,5.971 L65.878,0.2545 L61.759,0.2545 L61.759,15.8525 L64.999,15.8525 L64.999,11.155 C64.999,8.609 64.952,6.41 64.8605,4.3505 L64.9295,4.328 C65.6925,6.156 66.711,8.1695 67.6365,9.836 L70.9695,15.8525 L74.672,15.8525 L74.672,0.2545 L71.4325,0.2545 L71.4325,4.814" id="Fill-4"></path>
                        <path d="M11.3055,14.424 C11.0615,13.557 10.785,12.4615 10.507,11.456 C10.1135,10.021 9.5115,8.9795 8.4245,8.5395 L8.4245,8.47 C9.7665,7.9845 11.1785,6.619 11.1785,4.629 C11.1785,3.194 10.6685,2.106 9.743,1.365 C8.6325,0.486 7.013,0.139 4.698,0.139 C2.824,0.139 1.134,0.2785 0,0.463 L0,15.8525 L3.495,15.8525 L3.495,9.72 L4.5595,9.72 C5.994,9.743 6.6655,10.2755 7.0825,12.22 C7.5445,14.14 7.915,15.413 8.1695,15.8525 L14.526,15.8525 L15.637,11.849 L12.093,11.849 L11.3055,14.424 L11.3055,14.424 Z M4.8835,7.174 L3.495,7.174 L3.495,2.87 C3.749,2.8235 4.2355,2.7545 5.0915,2.7545 C6.7115,2.7775 7.684,3.4945 7.684,4.929 C7.684,6.295 6.6425,7.174 4.8835,7.174 L4.8835,7.174 Z" id="Fill-7"></path>
                        <path d="M20.1035,11.849 L21.3065,15.8525 L25.102,15.8525 L23.861,11.849 L20.1035,11.849" id="Fill-8"></path>
                        <path d="M20.2655,0.2545 L15.637,0.2545 L12.899,9.2105 L16.1455,9.2105 L17.072,5.9015 C17.326,4.999 17.5575,3.819 17.789,2.893 L17.8355,2.893 C18.0665,3.819 18.3445,4.976 18.623,5.9015 L19.5945,9.2105 L23.042,9.2105 L20.2655,0.2545" id="Fill-9"></path>
                    </g>
                </g>
            </g>
        </g>
    </g>
</svg>