<?xml version="1.0" encoding="utf-8"?>
<!-- Generator: Adobe Illustrator 16.0.0, SVG Export Plug-In . SVG Version: 6.00 Build 0)  -->
<!DOCTYPE svg PUBLIC "-//W3C//DTD SVG 1.1//EN" "http://www.w3.org/Graphics/SVG/1.1/DTD/svg11.dtd">
<svg version="1.1" id="Layer_1" xmlns="http://www.w3.org/2000/svg" xmlns:xlink="http://www.w3.org/1999/xlink" x="0px" y="0px"
	 width="200px" height="100px" viewBox="0 0 200 100" enable-background="new 0 0 200 100" xml:space="preserve">
<g enable-background="new    ">
	<path fill="#158FEF" d="M130.867,61.833c0,2.721-2.227,4.946-4.947,4.946H76.458c-2.721,0-4.946-2.226-4.946-4.946V24.241
		c0-2.721,2.226-4.946,4.946-4.946h49.462c2.721,0,4.947,2.226,4.947,4.946V61.833z M76.458,23.252
		c-0.525,0-0.989,0.464-0.989,0.989v37.592c0,0.525,0.464,0.989,0.989,0.989h49.462c0.525,0,0.99-0.464,0.99-0.989V24.241
		c0-0.525-0.465-0.989-0.99-0.989H76.458z M85.361,39.08c-3.277,0-5.936-2.658-5.936-5.936s2.659-5.936,5.936-5.936
		s5.936,2.658,5.936,5.936S88.638,39.08,85.361,39.08z M122.953,58.865H79.425V52.93l9.893-9.893l4.946,4.946l15.828-15.828
		l12.861,12.86V58.865z"/>
</g>
<g enable-background="new    ">
	<path fill="#231F20" d="M59.872,85.939v-8h0.996v8H59.872z"/>
	<path fill="#231F20" d="M69.696,85.939v-3.934c0-0.731-0.312-1.199-1.067-1.199c-0.6,0-1.235,0.419-1.535,0.887v4.246h-0.899
		v-3.934c0-0.731-0.3-1.199-1.067-1.199c-0.588,0-1.211,0.432-1.523,0.899v4.233h-0.899v-5.793h0.899v0.84
		c0.252-0.372,1.02-0.983,1.883-0.983c0.875,0,1.379,0.479,1.547,1.079c0.324-0.527,1.104-1.079,1.943-1.079
		c1.056,0,1.619,0.588,1.619,1.751v4.186H69.696z"/>
	<path fill="#231F20" d="M76.022,85.939V85.28c-0.468,0.527-1.139,0.803-1.919,0.803c-0.971,0-2.015-0.659-2.015-1.919
		c0-1.307,1.031-1.906,2.015-1.906c0.792,0,1.451,0.252,1.919,0.779v-1.044c0-0.768-0.624-1.211-1.463-1.211
		c-0.695,0-1.259,0.24-1.775,0.804l-0.419-0.624c0.624-0.647,1.367-0.959,2.314-0.959c1.235,0,2.243,0.552,2.243,1.955v3.981H76.022
		z M76.022,84.716v-1.104c-0.348-0.468-0.959-0.707-1.583-0.707c-0.852,0-1.439,0.527-1.439,1.259c0,0.744,0.588,1.271,1.439,1.271
		C75.062,85.436,75.674,85.196,76.022,84.716z"/>
	<path fill="#231F20" d="M78.724,87.415l0.456-0.648c0.479,0.564,1.056,0.78,1.883,0.78c0.959,0,1.871-0.468,1.871-1.691V84.98
		c-0.432,0.587-1.139,1.031-1.955,1.031c-1.511,0-2.579-1.128-2.579-2.999c0-1.858,1.056-3.01,2.579-3.01
		c0.78,0,1.487,0.384,1.955,1.02v-0.876h0.899v5.709c0,1.835-1.355,2.435-2.771,2.435C80.091,88.29,79.419,88.099,78.724,87.415z
		 M82.934,84.272v-2.543c-0.324-0.491-1.02-0.923-1.727-0.923c-1.175,0-1.871,0.923-1.871,2.206c0,1.271,0.696,2.195,1.871,2.195
		C81.914,85.208,82.61,84.776,82.934,84.272z"/>
	<path fill="#231F20" d="M85.3,83.037c0-1.679,1.2-3.034,2.854-3.034c1.751,0,2.783,1.367,2.783,3.106v0.228h-4.678
		c0.072,1.092,0.828,2.003,2.075,2.003c0.671,0,1.331-0.264,1.799-0.744l0.432,0.588c-0.587,0.576-1.367,0.899-2.303,0.899
		C86.535,86.083,85.3,84.848,85.3,83.037z M88.143,80.746c-1.235,0-1.847,1.044-1.895,1.919h3.802
		C90.038,81.813,89.462,80.746,88.143,80.746z"/>
	<path fill="#231F20" d="M95.5,85.939v-8h0.899v8H95.5z"/>
	<path fill="#231F20" d="M97.863,83.037c0-1.679,1.104-3.034,2.867-3.034c1.763,0,2.865,1.355,2.865,3.034s-1.103,3.046-2.865,3.046
		C98.967,86.083,97.863,84.716,97.863,83.037z M102.648,83.037c0-1.176-0.684-2.23-1.918-2.23c-1.236,0-1.919,1.055-1.919,2.23
		c0,1.188,0.684,2.243,1.919,2.243C101.965,85.28,102.648,84.225,102.648,83.037z"/>
	<path fill="#231F20" d="M108.686,85.939V85.28c-0.468,0.527-1.139,0.803-1.919,0.803c-0.972,0-2.015-0.659-2.015-1.919
		c0-1.307,1.031-1.906,2.015-1.906c0.792,0,1.451,0.252,1.919,0.779v-1.044c0-0.768-0.623-1.211-1.463-1.211
		c-0.695,0-1.26,0.24-1.775,0.804l-0.42-0.624c0.624-0.647,1.367-0.959,2.314-0.959c1.236,0,2.243,0.552,2.243,1.955v3.981H108.686z
		 M108.686,84.716v-1.104c-0.348-0.468-0.959-0.707-1.583-0.707c-0.852,0-1.439,0.527-1.439,1.259c0,0.744,0.588,1.271,1.439,1.271
		C107.727,85.436,108.338,85.196,108.686,84.716z"/>
	<path fill="#231F20" d="M115.598,85.939v-0.863c-0.432,0.588-1.14,1.007-1.955,1.007c-1.512,0-2.579-1.151-2.579-3.034
		c0-1.858,1.067-3.046,2.579-3.046c0.779,0,1.486,0.384,1.955,1.02v-3.083h0.898v8H115.598z M115.598,84.356v-2.614
		c-0.312-0.504-1.02-0.936-1.728-0.936c-1.175,0-1.871,0.959-1.871,2.242s0.696,2.231,1.871,2.231
		C114.578,85.28,115.285,84.86,115.598,84.356z"/>
	<path fill="#231F20" d="M118.144,78.72c0-0.336,0.276-0.612,0.612-0.612c0.335,0,0.6,0.276,0.6,0.612s-0.265,0.6-0.6,0.6
		C118.42,79.319,118.144,79.056,118.144,78.72z M118.299,85.939v-5.793h0.9v5.793H118.299z"/>
	<path fill="#231F20" d="M124.921,85.939v-3.79c0-1.031-0.528-1.343-1.308-1.343c-0.707,0-1.367,0.432-1.715,0.899v4.233h-0.899
		v-5.793h0.899v0.84c0.408-0.492,1.199-0.983,2.075-0.983c1.199,0,1.835,0.611,1.835,1.871v4.065H124.921z"/>
	<path fill="#231F20" d="M127.611,87.415l0.455-0.648c0.48,0.564,1.056,0.78,1.883,0.78c0.96,0,1.871-0.468,1.871-1.691V84.98
		c-0.432,0.587-1.139,1.031-1.955,1.031c-1.511,0-2.578-1.128-2.578-2.999c0-1.858,1.056-3.01,2.578-3.01
		c0.78,0,1.488,0.384,1.955,1.02v-0.876h0.9v5.709c0,1.835-1.355,2.435-2.771,2.435C128.979,88.29,128.307,88.099,127.611,87.415z
		 M131.82,84.272v-2.543c-0.323-0.491-1.02-0.923-1.727-0.923c-1.176,0-1.871,0.923-1.871,2.206c0,1.271,0.695,2.195,1.871,2.195
		C130.801,85.208,131.497,84.776,131.82,84.272z"/>
	<path fill="#231F20" d="M134.344,85.399c0-0.359,0.299-0.659,0.659-0.659s0.659,0.3,0.659,0.659c0,0.36-0.299,0.66-0.659,0.66
		S134.344,85.76,134.344,85.399z"/>
	<path fill="#231F20" d="M137.115,85.399c0-0.359,0.3-0.659,0.66-0.659c0.359,0,0.659,0.3,0.659,0.659c0,0.36-0.3,0.66-0.659,0.66
		C137.415,86.06,137.115,85.76,137.115,85.399z"/>
	<path fill="#231F20" d="M139.887,85.399c0-0.359,0.301-0.659,0.66-0.659s0.66,0.3,0.66,0.659c0,0.36-0.301,0.66-0.66,0.66
		S139.887,85.76,139.887,85.399z"/>
</g>
</svg>
